# xmcd
#
# Track frame offsets:
#	150
#	25764
#	45673
#	75434
#	95910
#	120517
#	145259
#	165831
#	193579
#	217523
#
# Disc length: 3173 seconds
#
# Revision: 1
# Processed by: cddbd v1.5.2PL0 Copyright (c) Steve Scherf et al.
# Submitted via: EZCDAudioConverter 8.0.2.1
#
DISCID=730c630a
DTITLE=Ngọc Hạ - Ngày Xưa Hoàng Thị
DYEAR=2013
DGENRE=
TTITLE0=Đêm bơ vơ
TTITLE1=Trở về Huế
TTITLE2=Ngày Xưa Hoàng Thị
TTITLE3=Cô nữ sinh Đồng Khánh
TTITLE4=Giận mà thương
TTITLE5=Mình ơi
TTITLE6=Paris có gì lạ không em
TTITLE7=Người đi qua đời tôi
TTITLE8=Tóc mai sợi vắn sợi dài
TTITLE9=Em lễ chùa này
EXTD=
EXTT0=
EXTT1=
EXTT2=
EXTT3=
EXTT4=
EXTT5=
EXTT6=
EXTT7=
EXTT8=
EXTT9=
PLAYORDER=
